# xmcd CD database file
#
# Track frame offsets:
#	150
#	14109
#	27018
#	41641
#	56088
#	70462
#	83802
#	96515
#	110231
#	120592
#	133425
#	148117
#	161864
#	174362
#	197322
#
# Disc length: 2809 seconds
#
# Revision: 1
# Processed by: cddbd v1.5.1PL0 Copyright (c) Steve Scherf et al.
# Submitted via: CDex 1.50
#
DISCID=e20af70f
DTITLE=Various Artist - Total Jazz-CD 3
DYEAR=2000
DGENRE=Jazz
TTITLE0=A Night in Tunisia
TTITLE1=Buck Dance Rhythm
TTITLE2=I left my Baby
TTITLE3=Nocturne
TTITLE4=Flying Home
TTITLE5=Chattanooga Stomp
TTITLE6=Says my Heart
TTITLE7=Moose the Mooche
TTITLE8=I Got Rhythm
TTITLE9=Rose Room
TTITLE10=April in Paris
TTITLE11=Night and Day
TTITLE12=Muskrat Ramble
TTITLE13=Body and Soul
TTITLE14=Early in the Morning
EXTD=YEAR: 2000
EXTT0=
EXTT1=
EXTT2=
EXTT3=
EXTT4=
EXTT5=
EXTT6=
EXTT7=
EXTT8=
EXTT9=
EXTT10=
EXTT11=
EXTT12=
EXTT13=
EXTT14=
PLAYORDER=
